<svg 
	fill="#ffffff" 
	viewBox="-100 -100 1200.00 1200.00"
	xmlns="http://www.w3.org/2000/svg"
	stroke="#ffffff"
	stroke-width="0.01">
	<g id="SVGRepo_bgCarrier" stroke-width="0"></g>
	<g id="SVGRepo_tracerCarrier" stroke-linecap="round" stroke-linejoin="round" stroke="#100f0f" stroke-width="10">
		<path d="M476 801l-181 95q-18 10-36.5 4.5T229 879t-7-36l34-202q2-12-1.5-24T242 596L95 453q-15-14-15.5-33.5T91 385t32-18l203-30q12-2 22-9t16-18l90-184q10-18 28-25t36 0 28 25l90 184q6 11 16 18t22 9l203 30q20 3 32 18t11.5 34.5T905 453L758 596q-8 9-12 21t-2 24l34 202q4 20-7 36t-29.5 21.5T705 896l-181-95q-11-6-24-6t-24 6z"></path></g><g id="SVGRepo_iconCarrier"><path d="M476 801l-181 95q-18 10-36.5 4.5T229 879t-7-36l34-202q2-12-1.5-24T242 596L95 453q-15-14-15.5-33.5T91 385t32-18l203-30q12-2 22-9t16-18l90-184q10-18 28-25t36 0 28 25l90 184q6 11 16 18t22 9l203 30q20 3 32 18t11.5 34.5T905 453L758 596q-8 9-12 21t-2 24l34 202q4 20-7 36t-29.5 21.5T705 896l-181-95q-11-6-24-6t-24 6z">
		</path>
	</g>
</svg>